# xmcd
#
# Track frame offsets: 
#        150
#        2616
#        21625
#        35951
#        51074
#        74896
#        92561
#        110550
#        129455
#        154277
#        173019
#        196680
#        213090
#
# Disc length: 2951 seconds
#
# Revision: 6
# Processed by: cddbd v1.5.2PL0 Copyright (c) Steve Scherf et al.
# Submitted via: ExactAudioCopyFreeDBPlugin 1.0
#
DISCID=b50b850d
DTITLE=Os Mutantes - Haih or Amortecedor
DYEAR=2009
DGENRE=Psychedelic Rock
TTITLE0=Hymns of the World P 1 (Intro)
TTITLE1=Querida querida
TTITLE2=Teclar
TTITLE3=2000 e agarrum
TTITLE4=Baghdad Blues
TTITLE5=O careca
TTITLE6=O mensageiro
TTITLE7=Anagrama
TTITLE8=Samba do Fidel
TTITLE9=Neurociência do amor
TTITLE10=Nada mudou
TTITLE11=Gopala Krishna Om
TTITLE12=Hymns of the World P 2 (Final)
EXTD=YEAR: 2009
EXTT0=
EXTT1=
EXTT2=
EXTT3=
EXTT4=
EXTT5=
EXTT6=
EXTT7=
EXTT8=
EXTT9=
EXTT10=
EXTT11=
EXTT12=
PLAYORDER=
